<svg width="32" height="32" viewBox="0 0 32 32" fill="none" xmlns="http://www.w3.org/2000/svg">
    <mask id="tvw06ie5ja" style="mask-type:alpha" maskUnits="userSpaceOnUse" x="0" y="0" width="32" height="32">
        <path fill="#D9D9D9" d="M0 0h32v32H0z"/>
    </mask>
    <g mask="url(#tvw06ie5ja)">
        <path d="M16 17.454 9.233 24.23a.98.98 0 0 1-.682.283.92.92 0 0 1-.718-.283c-.2-.2-.3-.434-.3-.7 0-.268.1-.502.3-.702l6.767-6.778-6.767-6.777a.985.985 0 0 1-.282-.685.922.922 0 0 1 .282-.717c.2-.2.434-.3.7-.3.267 0 .5.1.7.3L16 14.649l6.767-6.777a.987.987 0 0 1 .684-.285.923.923 0 0 1 .716.285c.2.2.3.434.3.7 0 .268-.1.502-.3.702L17.4 16.05l6.767 6.778a.983.983 0 0 1 .282.684.923.923 0 0 1-.282.718c-.2.2-.434.3-.7.3-.267 0-.5-.1-.7-.3L16 17.454z" fill="#1A223E"/>
    </g>
</svg>
