<svg width="24" height="24" viewBox="0 0 24 24" fill="none" xmlns="http://www.w3.org/2000/svg">
    <mask id="vztytc77ua" style="mask-type:alpha" maskUnits="userSpaceOnUse" x="0" y="0" width="24" height="24">
        <path fill="#D9D9D9" d="M0 0h24v24H0z"/>
    </mask>
    <g mask="url(#vztytc77ua)">
        <path d="M15.625 15.975a.805.805 0 0 1-.225-.55c0-.2.075-.375.225-.525l1.9-1.9h-7.65a.726.726 0 0 1-.75-.75.728.728 0 0 1 .75-.75h7.65l-1.9-1.925a.72.72 0 0 1-.225-.525c0-.2.075-.375.225-.525a.72.72 0 0 1 .525-.225c.2 0 .367.067.5.2l3.125 3.125a.825.825 0 0 1 .188.287.944.944 0 0 1 0 .675.823.823 0 0 1-.188.288L16.65 16c-.15.167-.32.242-.512.225a.81.81 0 0 1-.513-.25zM5.4 21c-.5 0-.925-.175-1.275-.525A1.736 1.736 0 0 1 3.6 19.2V5.3c0-.5.175-.925.525-1.275.35-.35.775-.525 1.275-.525h5.975c.2 0 .375.07.525.212a.71.71 0 0 1 .225.538.706.706 0 0 1-.225.537.74.74 0 0 1-.525.213H5.4c-.067 0-.133.033-.2.1s-.1.133-.1.2v13.9c0 .067.033.133.1.2s.133.1.2.1h5.975c.2 0 .375.07.525.212a.71.71 0 0 1 .225.538.71.71 0 0 1-.225.538.742.742 0 0 1-.525.212H5.4z" fill="#808285"/>
    </g>
</svg>
